<svg xmlns="http://www.w3.org/2000/svg" id="google-icn" width="19" height="19" viewBox="0 0 19 19">
    <defs>
        <style>
            .cls-1{fill:#fbbb00}.cls-2{fill:#518ef8}.cls-3{fill:#28b446}.cls-4{fill:#f14336}
        </style>
    </defs>
    <path id="Path_3" d="M4.211 144.619l-.661 2.469-2.417.051a9.517 9.517 0 0 1-.07-8.871l2.152.395.943 2.139a5.67 5.67 0 0 0 .053 3.817z" class="cls-1" data-name="Path 3" transform="translate(0 -133.137)"/>
    <path id="Path_4" d="M270.753 208.176a9.5 9.5 0 0 1-3.387 9.183l-2.711-.138-.384-2.395a5.662 5.662 0 0 0 2.436-2.891h-5.08v-3.758h9.125z" class="cls-2" data-name="Path 4" transform="translate(-251.919 -200.451)"/>
    <path id="Path_5" d="M44.824 314.835a9.5 9.5 0 0 1-14.315-2.906l3.079-2.52a5.65 5.65 0 0 0 8.142 2.893z" class="cls-3" data-name="Path 5" transform="translate(-29.377 -297.927)"/>
    <path id="Path_6" d="M43.126 2.187l-3.078 2.52a5.649 5.649 0 0 0-8.329 2.958l-3.094-2.534a9.5 9.5 0 0 1 14.5-2.944z" class="cls-4" data-name="Path 6" transform="translate(-27.562)"/>
</svg>
